<svg xmlns="http://www.w3.org/2000/svg" viewBox="0 0 200 200" width="200" height="200">
<title>Reha Werkstatt Offenburg</title>
<g>
  <path d="M87.17,19.01 L90.97,4.43 L109.03,4.43 L112.83,19.01 L129.39,23.45 L139.96,12.71 L155.61,21.75 L151.60,36.27 L163.73,48.40 L178.25,44.39 L187.29,60.04 L176.55,70.61 L180.99,87.17 L195.57,90.97 L195.57,109.03 L180.99,112.83 L176.55,129.39 L187.29,139.96 L178.25,155.61 L163.73,151.60 L151.60,163.73 L155.61,178.25 L139.96,187.29 L129.39,176.55 L112.83,180.99 L109.03,195.57 L90.97,195.57 L87.17,180.99 L70.61,176.55 L60.04,187.29 L44.39,178.25 L48.40,163.73 L36.27,151.60 L21.75,155.61 L12.71,139.96 L23.45,129.39 L19.01,112.83 L4.43,109.03 L4.43,90.97 L19.01,87.17 L23.45,70.61 L12.71,60.04 L21.75,44.39 L36.27,48.40 L48.40,36.27 L44.39,21.75 L60.04,12.71 L70.61,23.45 Z" fill="#0E6E73"/>
  <circle cx="100" cy="100" r="64" fill="#FFFFFF"/>
  <circle cx="100" cy="70" r="13" fill="#F28C28"/>
  <path d="M60 86 Q100 128 140 86" fill="none" stroke="#F28C28" stroke-width="13" stroke-linecap="round"/>
  <path d="M82 146 L100 110 L118 146" fill="none" stroke="#0E6E73" stroke-width="11" stroke-linecap="round" stroke-linejoin="round"/>
</g>
</svg>
