<svg xmlns="http://www.w3.org/2000/svg" viewBox="0 0 834 200" width="834" height="200">
<title>Reha Werkstatt Offenburg</title>
<rect width="834" height="200" fill="#0E6E73"/><g>
  <path d="M87.17,19.01 L90.97,4.43 L109.03,4.43 L112.83,19.01 L129.39,23.45 L139.96,12.71 L155.61,21.75 L151.60,36.27 L163.73,48.40 L178.25,44.39 L187.29,60.04 L176.55,70.61 L180.99,87.17 L195.57,90.97 L195.57,109.03 L180.99,112.83 L176.55,129.39 L187.29,139.96 L178.25,155.61 L163.73,151.60 L151.60,163.73 L155.61,178.25 L139.96,187.29 L129.39,176.55 L112.83,180.99 L109.03,195.57 L90.97,195.57 L87.17,180.99 L70.61,176.55 L60.04,187.29 L44.39,178.25 L48.40,163.73 L36.27,151.60 L21.75,155.61 L12.71,139.96 L23.45,129.39 L19.01,112.83 L4.43,109.03 L4.43,90.97 L19.01,87.17 L23.45,70.61 L12.71,60.04 L21.75,44.39 L36.27,48.40 L48.40,36.27 L44.39,21.75 L60.04,12.71 L70.61,23.45 Z" fill="#FFFFFF"/>
  <circle cx="100" cy="100" r="64" fill="#0E6E73"/>
  <circle cx="100" cy="70" r="13" fill="#F28C28"/>
  <path d="M60 86 Q100 128 140 86" fill="none" stroke="#F28C28" stroke-width="13" stroke-linecap="round"/>
  <path d="M82 146 L100 110 L118 146" fill="none" stroke="#FFFFFF" stroke-width="11" stroke-linecap="round" stroke-linejoin="round"/>
</g><path transform="translate(236,108)" d="M32.373046875 0.0 22.79296875 -15.673828125H12.65625V0.0H4.013671875V-41.279296875H24.638671875Q32.021484375 -41.279296875 36.03515625 -38.1005859375Q40.048828125 -34.921875 40.048828125 -28.974609375Q40.048828125 -24.638671875 37.587890625 -21.4892578125Q35.126953125 -18.33984375 30.9375 -17.34375L42.099609375 0.0ZM31.34765625 -28.623046875Q31.34765625 -34.5703125 23.73046875 -34.5703125H12.65625V-22.3828125H23.96484375Q27.59765625 -22.3828125 29.47265625 -24.0234375Q31.34765625 -25.6640625 31.34765625 -28.623046875ZM48.54375 0.0V-41.279296875H81.0046875V-34.599609375H57.186328125V-24.228515625H79.217578125V-17.548828125H57.186328125V-6.6796875H82.205859375V0.0ZM116.394140625 0.0V-17.6953125H98.405859375V0.0H89.76328125V-41.279296875H98.405859375V-24.84375H116.394140625V-41.279296875H125.03671875V0.0ZM163.47304687500002 0.0 159.81093750000002 -10.546875H144.07851562500002L140.41640625000002 0.0H131.77382812500002L146.83242187500002 -41.279296875H157.02773437500002L172.02773437500002 0.0ZM151.93007812500002 -34.921875 151.75429687500002 -34.27734375Q151.46132812500002 -33.22265625 151.05117187500002 -31.875Q150.64101562500002 -30.52734375 146.01210937500002 -17.05078125H157.87734375000002L153.80507812500002 -28.916015625L152.54531250000002 -32.900390625ZM238.587890625 0.0H228.333984375L222.73828125 -23.876953125Q221.712890625 -28.095703125 221.009765625 -32.6953125Q220.306640625 -28.857421875 219.8671875 -26.8505859375Q219.427734375 -24.84375 213.626953125 0.0H203.373046875L192.73828125 -41.279296875H201.498046875L207.474609375 -14.619140625L208.822265625 -8.173828125Q209.642578125 -12.24609375 210.4189453125 -15.9521484375Q211.1953125 -19.658203125 216.263671875 -41.279296875H225.931640625L231.146484375 -19.306640625Q231.76171875 -16.845703125 233.2265625 -8.173828125L233.958984375 -11.572265625L235.51171875 -18.310546875L240.4921875 -41.279296875H249.251953125ZM254.52421875 0.0V-41.279296875H286.98515625V-34.599609375H263.166796875V-24.228515625H285.198046875V-17.548828125H263.166796875V-6.6796875H288.186328125V0.0ZM324.103125 0.0 314.523046875 -15.673828125H304.386328125V0.0H295.74375V-41.279296875H316.36875Q323.7515625 -41.279296875 327.765234375 -38.1005859375Q331.77890625 -34.921875 331.77890625 -28.974609375Q331.77890625 -24.638671875 329.31796875 -21.4892578125Q326.85703125 -18.33984375 322.667578125 -17.34375L333.8296875 0.0ZM323.077734375 -28.623046875Q323.077734375 -34.5703125 315.460546875 -34.5703125H304.386328125V-22.3828125H315.694921875Q319.327734375 -22.3828125 321.202734375 -24.0234375Q323.077734375 -25.6640625 323.077734375 -28.623046875ZM368.83828124999997 0.0 354.01406249999997 -18.955078125 348.91640624999997 -15.05859375V0.0H340.27382812499997V-41.279296875H348.91640624999997V-22.55859375L367.51992187499997 -41.279296875H377.59804687499997L359.96132812499997 -23.818359375L379.03359374999997 0.0ZM418.46601562499995 -11.89453125Q418.46601562499995 -5.830078125 413.96894531249995 -2.6220703125Q409.47187499999995 0.5859375 400.77070312499995 0.5859375Q392.83124999999995 0.5859375 388.31953124999995 -2.2265625Q383.80781249999995 -5.0390625 382.51874999999995 -10.751953125L390.86835937499995 -12.12890625Q391.71796874999995 -8.84765625 394.17890624999995 -7.3681640625Q396.63984374999995 -5.888671875 401.00507812499995 -5.888671875Q410.05781249999995 -5.888671875 410.05781249999995 -11.396484375Q410.05781249999995 -13.154296875 409.01777343749995 -14.296875Q407.97773437499995 -15.439453125 406.08808593749995 -16.201171875Q404.19843749999995 -16.962890625 398.83710937499995 -18.046875Q394.20820312499995 -19.130859375 392.39179687499995 -19.7900390625Q390.57539062499995 -20.44921875 389.11054687499995 -21.3427734375Q387.64570312499995 -22.236328125 386.62031249999995 -23.49609375Q385.59492187499995 -24.755859375 385.02363281249995 -26.455078125Q384.45234374999995 -28.154296875 384.45234374999995 -30.3515625Q384.45234374999995 -35.947265625 388.65644531249995 -38.9208984375Q392.86054687499995 -41.89453125 400.88789062499995 -41.89453125Q408.56367187499995 -41.89453125 412.41621093749995 -39.4921875Q416.26874999999995 -37.08984375 417.38203124999995 -31.552734375L409.00312499999995 -30.41015625Q408.35859374999995 -33.076171875 406.38105468749995 -34.423828125Q404.40351562499995 -35.771484375 400.71210937499995 -35.771484375Q392.86054687499995 -35.771484375 392.86054687499995 -30.849609375Q392.86054687499995 -29.23828125 393.69550781249995 -28.212890625Q394.53046874999995 -27.1875 396.17109374999995 -26.4697265625Q397.81171874999995 -25.751953125 402.82148437499995 -24.66796875Q408.76874999999995 -23.408203125 411.33222656249995 -22.3388671875Q413.89570312499995 -21.26953125 415.38984374999995 -19.8486328125Q416.88398437499995 -18.427734375 417.67499999999995 -16.4501953125Q418.46601562499995 -14.47265625 418.46601562499995 -11.89453125ZM444.65624999999994 -34.599609375V0.0H436.01367187499994V-34.599609375H422.68359374999994V-41.279296875H458.01562499999994V-34.599609375ZM493.05351562499993 0.0 489.39140624999993 -10.546875H473.65898437499993L469.99687499999993 0.0H461.35429687499993L476.41289062499993 -41.279296875H486.60820312499993L501.60820312499993 0.0ZM481.51054687499993 -34.921875 481.33476562499993 -34.27734375Q481.04179687499993 -33.22265625 480.63164062499993 -31.875Q480.22148437499993 -30.52734375 475.59257812499993 -17.05078125H487.45781249999993L483.38554687499993 -28.916015625L482.12578124999993 -32.900390625ZM527.0367187499999 -34.599609375V0.0H518.3941406249999V-34.599609375H505.0640624999999V-41.279296875H540.3960937499999V-34.599609375ZM564.8871093749999 -34.599609375V0.0H556.2445312499999V-34.599609375H542.9144531249999V-41.279296875H578.2464843749999V-34.599609375Z" fill="#FFFFFF"/><rect x="236" y="126" width="578.9" height="4" fill="#F28C28"/><path transform="translate(236,172)" d="M26.279296875 -12.498046875Q26.279296875 -8.61328125 24.7939453125 -5.6953125Q23.30859375 -2.77734375 20.53125 -1.212890625Q17.75390625 0.3515625 13.974609375 0.3515625Q10.16015625 0.3515625 7.3916015625 -1.1953125Q4.623046875 -2.7421875 3.1640625 -5.6689453125Q1.705078125 -8.595703125 1.705078125 -12.498046875Q1.705078125 -18.439453125 4.95703125 -21.7880859375Q8.208984375 -25.13671875 14.009765625 -25.13671875Q17.7890625 -25.13671875 20.56640625 -23.6337890625Q23.34375 -22.130859375 24.8115234375 -19.265625Q26.279296875 -16.400390625 26.279296875 -12.498046875ZM22.8515625 -12.498046875Q22.8515625 -17.12109375 20.5400390625 -19.7578125Q18.228515625 -22.39453125 14.009765625 -22.39453125Q9.755859375 -22.39453125 7.435546875 -19.79296875Q5.115234375 -17.19140625 5.115234375 -12.498046875Q5.115234375 -7.83984375 7.4619140625 -5.1064453125Q9.80859375 -2.373046875 13.974609375 -2.373046875Q18.263671875 -2.373046875 20.5576171875 -5.0185546875Q22.8515625 -7.6640625 22.8515625 -12.498046875ZM45.832499999999996 -22.025390625V-12.814453125H59.648906249999996V-10.037109375H45.832499999999996V0.0H42.475078124999996V-24.767578125H60.070781249999996V-22.025390625ZM79.34273437499999 -22.025390625V-12.814453125H93.15914062499999V-10.037109375H79.34273437499999V0.0H75.98531249999999V-24.767578125H93.58101562499999V-22.025390625ZM109.49554687499999 0.0V-24.767578125H128.2865625V-22.025390625H112.85296874999999V-14.080078125H127.23187499999999V-11.373046875H112.85296874999999V-2.7421875H129.007265625V0.0ZM161.09367187499998 0.0 147.83976562499998 -21.09375 147.92765624999998 -19.388671875 148.01554687499998 -16.453125V0.0H145.02726562499998V-24.767578125H148.92960937499998L162.32414062499998 -3.533203125Q162.11320312499998 -6.978515625 162.11320312499998 -8.525390625V-24.767578125H165.13664062499998V0.0ZM201.70546874999997 -6.978515625Q201.70546874999997 -3.673828125 199.29726562499997 -1.8369140625Q196.88906249999997 0.0 192.59999999999997 0.0H182.54531249999997V-24.767578125H191.54531249999997Q200.26406249999997 -24.767578125 200.26406249999997 -18.755859375Q200.26406249999997 -16.55859375 199.03359374999997 -15.064453125Q197.80312499999997 -13.5703125 195.55312499999997 -13.060546875Q198.50624999999997 -12.708984375 200.10585937499997 -11.0830078125Q201.70546874999997 -9.45703125 201.70546874999997 -6.978515625ZM196.88906249999997 -18.3515625Q196.88906249999997 -20.35546875 195.51796874999997 -21.216796875Q194.14687499999997 -22.078125 191.54531249999997 -22.078125H185.90273437499997V-14.23828125H191.54531249999997Q194.23476562499997 -14.23828125 195.56191406249997 -15.2490234375Q196.88906249999997 -16.259765625 196.88906249999997 -18.3515625ZM198.31289062499997 -7.2421875Q198.31289062499997 -11.619140625 192.16054687499997 -11.619140625H185.90273437499997V-2.689453125H192.42421874999997Q195.50039062499997 -2.689453125 196.90664062499997 -3.83203125Q198.31289062499997 -4.974609375 198.31289062499997 -7.2421875ZM227.97351562499995 0.3515625Q224.93249999999995 0.3515625 222.66492187499995 -0.755859375Q220.39734374999995 -1.86328125 219.14929687499995 -3.97265625Q217.90124999999995 -6.08203125 217.90124999999995 -9.0V-24.767578125H221.25867187499995V-9.28125Q221.25867187499995 -5.888671875 222.98132812499995 -4.130859375Q224.70398437499995 -2.373046875 227.95593749999995 -2.373046875Q231.29578124999995 -2.373046875 233.15027343749995 -4.1923828125Q235.00476562499995 -6.01171875 235.00476562499995 -9.509765625V-24.767578125H238.34460937499995V-9.31640625Q238.34460937499995 -6.310546875 237.07019531249995 -4.130859375Q235.79578124999995 -1.951171875 233.46667968749995 -0.7998046875Q231.13757812499995 0.3515625 227.97351562499995 0.3515625ZM273.10289062499993 0.0 266.66929687499993 -10.283203125H258.95249999999993V0.0H255.59507812499993V-24.767578125H267.24937499999993Q271.43296874999993 -24.767578125 273.70933593749993 -22.8955078125Q275.98570312499993 -21.0234375 275.98570312499993 -17.68359375Q275.98570312499993 -14.923828125 274.37730468749993 -13.04296875Q272.76890624999993 -11.162109375 269.93882812499993 -10.669921875L276.97007812499993 0.0ZM272.61070312499993 -17.6484375Q272.61070312499993 -19.810546875 271.14292968749993 -20.9443359375Q269.67515624999993 -22.078125 266.91539062499993 -22.078125H258.95249999999993V-12.9375H267.05601562499993Q269.71031249999993 -12.9375 271.16050781249993 -14.1767578125Q272.61070312499993 -15.416015625 272.61070312499993 -17.6484375ZM291.9705468749999 -12.498046875Q291.9705468749999 -18.52734375 295.2049218749999 -21.83203125Q298.4392968749999 -25.13671875 304.2928124999999 -25.13671875Q308.4060937499999 -25.13671875 310.9724999999999 -23.748046875Q313.5389062499999 -22.359375 314.9275781249999 -19.30078125L311.7283593749999 -18.3515625Q310.6736718749999 -20.4609375 308.8191796874999 -21.427734375Q306.9646874999999 -22.39453125 304.2049218749999 -22.39453125Q299.9158593749999 -22.39453125 297.6482812499999 -19.8017578125Q295.3807031249999 -17.208984375 295.3807031249999 -12.498046875Q295.3807031249999 -7.8046875 297.7889062499999 -5.0888671875Q300.1971093749999 -2.373046875 304.4510156249999 -2.373046875Q306.8767968749999 -2.373046875 308.9773828124999 -3.111328125Q311.0779687499999 -3.849609375 312.3787499999999 -5.115234375V-9.580078125H304.9783593749999V-12.392578125H315.4724999999999V-3.849609375Q313.5037499999999 -1.845703125 310.6473046874999 -0.7470703125Q307.7908593749999 0.3515625 304.4510156249999 0.3515625Q300.5662499999999 0.3515625 297.7537499999999 -1.1953125Q294.9412499999999 -2.7421875 293.4558984374999 -5.6513671875Q291.9705468749999 -8.560546875 291.9705468749999 -12.498046875Z" fill="#FFFFFF"/>
</svg>
